<svg xmlns="http://www.w3.org/2000/svg" viewBox="0 0 816 1056" width="816" height="1056">
  
  <rect width="816" height="1056" fill="#ffffff"></rect>
  
  <g transform="translate(64 52) scale(1.15)"><g transform="translate(6.5 1.25)"><path d="M20 39.5 A 14 14 0 0 1 7.3 19.5 L 11.5 23 A 9.3 9.3 0 0 0 20 39.5 Z" fill="#c69a4c" opacity="0.6"></path><path d="M20 19 L28 27 L20 35 L12 27 Z" fill="#c69a4c"></path><g transform="translate(17 11)"><path d="M9 0 L-5 -5 L-1 0 L-5 5 Z" fill="#c69a4c"></path></g></g></g>
  <text x="128" y="86" font-family="Newsreader, serif" font-weight="600" font-size="30" fill="#0b1a2e">MPASS</text>
  <text x="130" y="103" font-family="Archivo, sans-serif" font-weight="700" font-size="9" letter-spacing="5" fill="#5d7186">LAW GROUP</text>
  <text x="752" y="72" text-anchor="end" font-family="Archivo, sans-serif" font-weight="600" font-size="11" letter-spacing="1.5" fill="#c69a4c">AVIATION LAW · TITLE &amp; CLOSING</text>
  <text x="752" y="92" text-anchor="end" font-family="Archivo, sans-serif" font-size="11" fill="#5d7186">(252) 658 5577 · hello@mpass-law.com</text>
  <text x="752" y="108" text-anchor="end" font-family="Archivo, sans-serif" font-size="11" fill="#5d7186">Alabama · Serving clients nationwide</text>
  <line x1="64" y1="132" x2="752" y2="132" stroke="#c69a4c" stroke-width="1.5"></line>
  
  <line x1="64" y1="980" x2="752" y2="980" stroke="#e3e8ed" stroke-width="1"></line>
  <text x="64" y="1004" font-family="Archivo, sans-serif" font-size="9.5" fill="#5d7186">MPASS Law Group · Aviation transactions · Regulatory · Expert witness · Business formation · IP/AI · Title &amp; Closing</text>
  <text x="64" y="1020" font-family="Archivo, sans-serif" font-size="8.5" fill="#9aa7b3">Attorney advertising. This letterhead and its contents are confidential. Prior results do not guarantee a similar outcome.</text>
</svg>